<svg width="527" height="394" viewBox="0 0 527 394" fill="none" xmlns="http://www.w3.org/2000/svg">
<path fill-rule="evenodd" clip-rule="evenodd" d="M117.749 57.7988C117.564 59.403 115.572 58.1779 115.386 59.0475C115.268 59.5939 117.318 60.9498 117.761 61.3233C116.332 62.1841 114.509 60.2008 113.438 59.3697C112.887 59.9684 112.7 60.2829 113.207 60.9678C114.101 62.1769 114.06 60.5748 115.123 61.4161C114.68 62.16 114.292 61.7337 113.729 61.5336C113.974 62.9649 113.426 62.059 112.996 62.9655C112.647 63.7027 112.69 64.2475 112.586 65.0709C113.091 66.2303 113.595 67.3903 114.1 68.5497C114.707 69.9446 114.526 70.393 116.011 69.9266C115.843 69.6373 114.733 68.2224 114.823 67.8746C114.926 67.477 116.445 66.927 116.846 66.593C117.552 66.0056 117.544 65.5018 117.995 64.8708C117.816 64.2839 117.955 64.0095 118.413 64.049L118.918 65.409C118.876 66.374 118.061 66.2837 117.581 67.2056C116.844 68.6164 117.256 67.7838 117.858 68.9191C118.449 70.0344 118.515 71.458 119.487 72.0187C118.965 72.2481 118.443 72.4774 117.921 72.7062C119.14 74.0441 116.604 73.3926 116.185 73.2628C116.614 74.1734 117.043 75.084 117.471 75.9946C118.756 75.2754 119.39 73.9118 120.246 72.7857L122.201 76.4189C121.552 76.3589 120.904 76.2994 120.256 76.2394C120.347 76.4102 121.177 77.5819 121.106 77.8426C120.816 78.905 118.61 78.3058 118.854 79.6956C118.886 79.8736 120.863 81.8677 121.202 82.0601C120.208 82.5064 119.759 82.3212 120.115 83.4935L121.499 82.6567C121.892 83.3621 122.347 84.0511 122.597 84.8237C122.55 85.3291 122.639 85.8077 122.868 86.2602C123.14 86.665 123.446 87.0426 123.787 87.3924C124.057 88.103 124.144 91.9814 123.818 92.614C123.093 91.6767 121.471 93.3312 124.208 93.3312C125.407 93.3312 125.326 93.0818 125.784 94.1346C126.144 94.9631 126.339 95.6859 125.318 95.7655C126.086 97.2784 125.922 98.4439 125.991 100.056C126.047 101.363 126.414 102.661 126.685 103.942C126.442 103.593 126.199 103.244 125.956 102.895C125.3 104.292 125.8 105.469 126.111 106.965C126.791 106.066 126.874 107.669 127.456 107.503C128.643 107.165 127.754 106.915 128.236 106.137C128.655 105.463 128.611 105.27 129.384 104.858C130.409 104.311 132.205 104.291 133.365 104.098C135.314 103.773 137.266 103.691 139.238 103.605C146.621 103.285 153.977 103.203 161.359 103.609C168.15 103.983 175.105 104.935 181.764 106.224C188.854 107.597 195.787 108.863 202.654 111.186C203.98 111.635 205.309 112.571 206.635 112.9C207.893 113.212 209.154 113.208 210.466 113.664C213.607 114.754 216.857 115.581 220.023 116.622C223.434 117.744 227.125 118.68 230.372 120.233C231.782 120.908 233.062 121.822 234.471 122.506C235.799 123.149 238.032 123.737 238.733 125.224C239.006 125.803 238.96 126.223 238.79 126.824C238.449 128.03 238.18 127.9 237.255 127.818C235.967 127.704 234.301 126.702 233.051 126.308C229.628 125.23 226.164 124.366 222.683 123.502C216.432 121.951 210.156 119.203 203.988 118.128C200.329 117.491 196.863 115.758 193.185 115.103C192.378 114.96 190.042 113.808 189.379 114.207C189.204 114.312 188.774 115.576 188.623 115.878C188.079 116.963 187.457 118.012 186.727 118.984C184.528 121.915 181.579 124.276 178.947 126.802C175.94 129.688 173.327 132.871 170.552 135.969C170.311 135.689 170.07 135.41 169.83 135.131C170.084 137.087 168.618 138.498 167.42 139.826C165.999 141.404 164.855 142.887 163.734 144.686C162.815 146.162 161.638 147.453 160.598 148.797C159.576 150.12 158.896 151.716 157.956 153.141C155.797 156.415 153.673 159.751 151.495 162.981C150.47 164.501 149.661 166.211 148.85 167.942C148.206 169.315 146.269 172.123 146.269 173.456C146.408 174.108 144.993 178.034 146.505 176.184C146.746 176.558 146.988 176.931 147.23 177.304C146.816 177.131 146.403 176.958 145.989 176.784C147.245 177.922 144.899 178.068 144.848 178.703C145.057 178.905 145.266 179.107 145.475 179.308C145.832 180.044 146.296 180.139 146.867 179.595C147.497 179.633 147.623 179.281 148.324 179.516C147.654 180.562 146.791 179.9 146.451 181.346C146.153 182.62 147.099 182.893 148.099 183.646L148.161 183.694L148.183 183.769C148.401 184.42 149.019 184.143 149.708 184.001C151.355 183.662 153.174 183.012 154.778 182.512C158.245 181.431 161.738 180.52 165.322 179.78C173.499 178.093 181.611 178.173 189.863 177.639C189.646 176.735 189.645 176.815 189.902 176.254C189.572 176.973 191.565 176.035 190.063 177.622C193.897 178.248 198.039 177.777 201.927 177.986C201.746 177.583 201.33 177.119 201.719 176.827C203.56 179.489 209.712 178.347 212.754 178.729C214.539 178.953 216.303 179.382 218.083 179.665L218.832 179.782C219.457 179.882 220.082 179.991 220.692 180.156C221.479 180.368 222.789 181.238 223.534 181.036C222.443 178.836 223.701 180.741 223.873 180.766C224.391 180.842 225.283 181.017 226.027 181.017C225.179 177.61 223.724 174.471 223.137 170.961C222.771 168.774 221.767 165.251 223.93 163.7C225.115 162.851 227.057 162.666 228.429 162.378C229.934 162.061 232.562 162.074 233.871 161.224C234.892 160.559 235.108 159.949 236.447 159.441C237.991 158.855 238.703 158.273 240.263 158.747C239.629 157.952 238.74 157.373 239.985 156.56C240.496 156.229 241.496 156.675 241.675 155.949C242.6 156.602 242.381 157.129 242.628 158.025C242.605 158.403 242.506 158.764 242.328 159.107C242.818 159.304 243.307 159.501 243.796 159.698C243.485 158.862 244.398 159.361 244.58 158.95C244.851 158.336 244.69 157.398 244.69 156.732C245.699 157.05 246.754 157.444 247.195 158.494C248.43 157.758 247.939 157.708 247.306 156.603C248.343 156.358 248.562 156.891 248.72 157.75C249.267 157.581 249.815 157.412 250.362 157.243C249.128 157.235 248.832 156.271 248.803 155.225C249.283 155.381 249.762 155.537 250.243 155.693C250.341 156.199 250.44 156.706 250.538 157.212C251.294 157.852 253.26 156.696 253.897 156.365C256.121 155.212 256.934 154.879 256.621 152.259C256.359 150.064 255.779 147.857 255.65 145.65C255.507 143.198 255.793 140.576 256.008 138.132C256.424 133.403 257.095 128.742 257.33 123.993C257.457 121.422 257.598 118.85 257.699 116.277C257.779 114.232 258.485 111.982 255.934 111.8C256.246 110.81 255.312 109.665 254.348 109.123C254.011 108.355 253.642 108.286 253.242 108.918C252.894 109.027 252.571 108.976 252.272 108.763C250.867 108.444 249.182 106.451 247.921 105.732C246.685 105.028 243.989 104.004 243.106 102.818C242.252 101.67 243.544 101.8 243.282 100.748C242.926 99.3104 241.629 101.375 241.43 101.662C240.996 101.227 239.34 100.41 239.36 99.7768C239.766 99.7044 240.171 99.6321 240.577 99.5598C240.133 99.3038 239.15 98.5394 238.634 98.4383C237.758 98.2664 238.087 98.0443 237.385 99.0103C237.141 98.6317 236.546 97.3876 236.175 97.1357C235.997 97.0152 234.942 96.9351 234.721 96.8572C233.573 96.4514 233.689 95.5582 232.845 95.1334C232.436 94.9277 231.932 95.2437 231.588 95.0939C231.039 94.8538 231.038 94.0345 230.54 93.7375C230.109 93.4799 229.016 93.6939 228.501 93.5066C227.649 93.1952 227.686 92.9054 227.05 92.3369C226.158 91.5402 225.336 91.6556 224.343 91.0518C223.313 90.4259 223.471 89.0167 222.536 88.7478C221.288 88.3892 220.968 89.5712 220.289 88.4036C220.136 88.1414 220.829 87.7495 220.395 87.3288C219.859 86.8107 219.637 87.4289 219.392 87.8316L218.544 86.2325C217.186 86.9764 217.756 86.017 216.719 85.5061C216.259 85.2793 215.88 85.7272 215.376 85.4532C215.005 85.2521 214.941 84.814 214.674 84.5426C214.162 84.0209 213.879 83.3047 213.086 83.0564C213.373 83.1456 211.023 83.0779 211.233 82.9774C211.461 82.6419 211.69 82.3063 211.919 81.9708C210.689 81.9708 209.615 82.0929 208.426 81.7236C208.005 81.5933 207.346 81.3921 206.996 81.1243C206.033 80.3882 206.25 80.5677 206.25 79.2154C204.922 80.0609 203.231 79.7654 201.92 78.785C201.236 78.273 200.797 77.6604 200.047 77.1977C199.724 77.031 199.397 76.875 199.064 76.7303C198.648 76.2994 198.23 76.2953 197.812 76.7185C197.221 76.56 197.228 76.4507 196.77 76.1639C196.639 75.9044 196.499 75.6494 196.349 75.3996C195.858 75.3482 195.373 75.2595 194.895 75.1333C193.04 74.6341 191.919 73.3957 190.197 74.493C189.977 74.0442 189.756 73.5947 189.537 73.1453C188.804 74.2904 188.303 73.1966 187.33 72.7329C186.922 72.5384 186.393 72.4902 186.024 72.3127L185.401 72.4599C185.225 71.9161 185.05 71.3723 184.875 70.8285C184.52 70.9665 183.115 71.7212 182.693 71.6812C182.087 71.6242 181.364 70.5997 180.778 70.4063C179.883 70.1113 180.203 70.5012 179.325 70.5074C178.649 70.512 178.33 70.6079 177.747 70.0405C179.72 69.528 177.23 69.2864 176.399 69.113C175.104 68.8431 174.436 69.1315 173.536 68.108H174.47C173.549 67.2692 173.859 67.5652 172.888 67.6473C172.583 67.6724 171.253 68.4025 171.25 67.4287C169.996 68.168 169.982 68.1695 168.689 67.8361C168.116 67.6883 167.629 67.2076 166.999 67.1963C166.385 67.1856 165.945 67.4631 165.397 67.4036C165.069 67.3687 163.922 66.9383 163.534 66.7972C162.919 66.573 162.513 66.0944 161.925 65.9092C161.278 65.7045 160.454 65.9476 159.773 65.7984C157.751 65.3531 156.563 64.1423 154.373 64.798C154.139 62.8377 151.696 63.2738 150.382 63.4759C149.466 63.617 149 63.9874 148.052 63.539C147.281 63.1743 146.841 62.5956 145.982 62.3042C145.324 62.0805 144.436 61.9179 143.748 61.7753C143.323 61.6408 142.888 61.5977 142.445 61.6465C141.999 61.709 141.625 61.9031 141.324 62.2278L141.268 62.2919C141.199 62.1301 140.163 61.3623 140.282 61.4572C139.509 60.838 139.146 61.0745 138.67 59.8689L140.328 59.519C139.475 59.4615 138.833 59.363 138.074 59.695C137.549 59.9243 136.667 61.1396 136.142 61.1406C135.191 61.1417 134.859 59.8022 134.953 59.105C134.155 60.9626 133.474 61.272 131.683 60.3224C131.473 60.2105 131.262 60.0992 131.051 59.9874C130.625 59.5405 130.201 59.5487 129.78 60.0125L129.029 60.4214C128.727 59.9202 128.427 59.4195 128.125 58.9182C127.486 59.7986 126.879 59.8417 125.836 59.636C125.117 59.4938 123.642 58.1913 123.112 58.1918C122.805 58.1918 122.412 58.9408 121.9 59.087C121.052 59.3302 119.734 58.7187 119.432 57.9071C119.271 58.2457 119.11 58.5848 118.95 58.9239C118.55 58.5494 118.147 58.1759 117.749 57.7988ZM148.189 183.687L148.19 183.716L148.161 183.694L148.161 183.693L148.189 183.687ZM149.229 181.92V183.498L148.695 183.595L148.189 183.687L148.183 183.601C148.161 182.842 148.55 182.28 149.229 181.92ZM196.437 175.644C196.604 176.155 196.77 176.666 196.937 177.177C196.376 177.223 195.815 177.269 195.253 177.315C195.648 176.758 196.043 176.201 196.437 175.644ZM262.323 135.221C261.097 135.579 261.114 135.535 260.867 136.67C259.466 143.129 263.801 150.537 260.619 156.677C269.923 156.602 279.246 156.787 288.496 157.877C288.496 154.36 288.38 150.851 288.646 147.339C288.767 145.745 288.947 144.157 289.109 142.567C289.315 140.549 289.25 140.667 287.598 140.32C286.731 140.137 286.421 139.587 285.591 139.252C284.969 139 284.69 139.31 284.077 139.396C282.979 139.551 282.966 139.367 281.96 139.153C279.802 138.693 277.969 138.857 276.264 137.245C275.38 137.169 275.666 137.988 275.05 137.908C274.602 137.849 274.317 137.013 273.86 136.813C272.438 136.191 270.072 136.343 268.516 136.148C266.927 135.95 265.521 135.234 264 135.021C263.374 134.934 262.917 135.048 262.323 135.221ZM244.376 153.862C244.676 154.979 245.993 153.525 246.014 154.401L246.012 154.481L246.01 154.461C245.94 154.311 244.608 156.074 244.687 156.016C243.971 156.555 243.554 156.504 242.743 155.885C244.195 155.83 244.035 154.935 244.376 153.862ZM240.33 155.44C239.8 155.731 239.638 154.986 239.363 154.531C239.955 154.236 240.043 154.922 240.33 155.44ZM241.97 150.581C241.764 151.307 241.779 151.863 241.779 152.612C240.553 152.438 240.168 152.349 240.145 151.046L240.8 151.457C241.144 150.777 241.22 150.724 241.97 150.581ZM251.455 151.796C251.177 151.617 250.9 151.438 250.622 151.259C251.032 150.67 251.76 151.37 251.455 151.796ZM248.355 140.957C248.001 140.772 247.646 140.586 247.292 140.4C248.212 139.228 248.279 139.622 248.355 140.957ZM249.636 131.659H251.03C250.757 132.555 249.636 132.748 249.636 131.659ZM113.12 79.5457C112.802 79.7314 112.483 79.9172 112.165 80.1024C112.992 80.856 114.009 81.6158 113.204 82.4992C112.564 83.2005 109.577 83.535 108.682 83.7905C108.993 84.1475 109.633 85.1233 110.056 85.369C110.391 85.5635 110.698 84.7934 111.374 85.5604C110.252 86.1422 110.553 85.7015 110.844 86.9353C111.016 87.6633 111.631 88.4451 111.978 89.0982C112.821 90.687 113.685 92.2656 114.57 93.8318C116.385 97.0438 118.297 100.203 120.305 103.298C120.644 101.55 119.675 99.5905 119.173 97.9037C118.541 95.7808 117.908 93.6589 117.272 91.5376C116.044 87.4498 114.942 83.4047 113.12 79.5457ZM161.85 84.8797C162.758 85.111 163.352 85.2619 164.291 85.5009C162.927 85.9349 162.927 85.9349 161.85 84.8797ZM121.668 77.0002C122.825 77.5419 122.949 77.9354 122.013 78.5982C121.901 78.0827 121.82 77.7046 121.668 77.0002ZM121.808 64.1803C121.965 64.8683 122.939 64.2065 123.154 64.7092C123.648 65.8594 122.079 65.7035 121.513 65.6342C121.611 65.1494 121.71 64.6651 121.808 64.1803ZM115.25 63.3071C115.56 64.778 115.56 64.778 114.125 64.9991C114.502 64.4327 114.817 63.9576 115.25 63.3071ZM141.268 62.2919L141.27 62.3075C141.269 62.3164 141.26 62.3207 141.243 62.3196L141.268 62.2919Z" fill="#2466A2"/>
<path fill-rule="evenodd" clip-rule="evenodd" d="M322.651 216.348C322.869 217.468 323.413 217.996 322.843 219.024C322.359 219.898 320.972 220.47 320.041 220.249L322.651 216.348ZM347.879 176.514L352.472 178.089C351.216 179.321 350.02 180.616 348.636 181.709L347.879 176.514ZM272.116 180.547C274.307 179.443 276.761 179.318 279.162 179.177C278.797 181.148 278.432 183.12 278.066 185.092C276.083 183.577 274.099 182.062 272.116 180.547ZM324.718 333.168C325.155 332.394 328.137 326.413 328.756 326.72C329.085 326.882 329.111 330.212 329.159 330.686C329.33 332.371 329.501 334.055 329.672 335.74C327.908 335.117 326.025 334.6 324.718 333.168ZM345.551 284.814C345.1 286.135 344.648 287.457 344.197 288.779C343.983 289.408 343.857 290.335 343.478 290.889C342.985 291.609 343.356 292.032 342.698 291.244C341.991 290.398 341.78 288.142 341.473 287.106C341.007 285.531 340.541 283.958 340.075 282.384C342.271 282.366 343.603 284.174 345.551 284.814ZM391.703 206.968C394.404 208.814 397.137 210.645 399.487 212.939C397.42 212.81 394.542 214.232 392.595 213.564C391.696 213.756 391.399 213.415 391.703 212.54V210.722V206.968ZM351.661 220.025V230.802C349.139 228.654 346.485 226.658 344.059 224.399C346.593 222.941 349.126 221.483 351.661 220.025ZM261.522 247.95C262.318 252.747 262.362 257.685 262.58 262.54C262.619 263.402 262.951 264.699 262.377 265.454C261.801 266.211 260.159 266.63 259.325 267.034C256.978 268.172 254.647 269.342 252.307 270.494C255.379 262.979 258.45 255.464 261.522 247.95ZM201.935 218.444C196.145 215.598 190.354 212.752 184.564 209.905C190.241 207.501 195.918 205.098 201.595 202.695C201.708 207.945 201.822 213.195 201.935 218.444ZM261.535 231.845C260.476 231.921 260.309 227.89 260.134 226.824C259.801 224.801 259.459 222.779 259.109 220.758C258.407 216.718 257.671 212.685 256.895 208.659C255.344 200.609 253.633 192.589 251.737 184.613C253.774 184.246 255.646 183.981 257.636 183.388C259.244 182.909 261.158 183.17 262.593 182.174C262.779 185.911 261.846 189.884 261.5 193.622C261.1 197.946 260.885 202.248 260.921 206.591C260.99 215.01 261.31 223.43 261.535 231.845ZM394.808 345.899C393.805 345.632 395.171 331.876 395.232 329.892C395.407 324.149 395.44 318.402 395.338 312.657C400.744 316.047 406.276 319.169 411.987 321.985C410.519 323.889 409.144 325.942 407.519 327.714C405.846 329.539 403.926 331.034 402.375 333C399.253 336.958 397.114 341.451 394.808 345.899ZM264.713 264.525C264.462 260.387 264.229 256.258 263.811 252.133C263.633 250.378 261.936 241.049 264.653 241.268C266.198 241.393 268.908 243.655 270.325 244.447C272.197 245.494 274.071 246.537 275.952 247.568C279.663 249.601 283.399 251.59 287.123 253.599C279.653 257.241 272.183 260.883 264.713 264.525ZM280.841 178.492C283.935 178.261 286.926 178.031 289.978 177.455C291.624 177.144 293.27 177.187 294.924 176.977C296.109 176.827 298.426 175.854 299.53 176.172C300.917 176.572 301.421 183.524 301.611 185.269C301.919 188.08 302.126 191.489 300.871 194.129C298.451 199.218 291.932 195.246 288.761 193.111C286.042 191.281 282.963 189.427 280.551 187.205C278.416 185.237 280.333 181.035 280.841 178.492ZM264.796 233.834C262.464 232.891 262.501 231.707 262.4 229.268C262.277 226.305 262.205 223.338 262.12 220.373C261.969 215.09 261.827 209.804 261.874 204.518C261.92 199.355 262.172 194.199 262.763 189.068C262.972 187.253 262.764 184.154 263.721 182.606C264.593 181.194 267.302 181.179 268.78 181.267C270.446 181.365 271.796 182.947 273.026 183.948C274.388 185.056 277.187 186.617 277.41 188.27C277.66 190.116 276.646 192.75 276.253 194.54C274.816 201.074 273.067 207.545 271.226 213.975C269.315 220.646 267.379 227.385 264.796 233.834ZM324.023 218.193C323.872 216.725 323.326 215.498 324.065 214.1C324.699 212.897 325.733 211.689 326.509 210.551C328.73 207.29 331.221 204.167 333.641 201.052C335.858 198.199 338.128 195.376 340.451 192.609C341.745 191.069 343.079 189.562 344.405 188.048C345.376 186.941 346.296 185.384 347.669 184.804C348.682 191.164 349.518 197.552 350.17 203.959C350.485 207.056 350.757 210.158 350.986 213.263C351.05 214.139 351.73 217.099 351.295 217.915C350.838 218.772 348.045 219.919 347.19 220.444C344.799 221.914 342.941 224.127 340.668 221.712C339.102 220.049 337.842 217.704 336.093 216.253C335.181 215.497 334.323 215.532 333.3 215.083C332.112 214.562 332.074 214.06 330.654 214.769C328.26 215.964 326.806 217.73 324.023 218.193ZM443.838 250.916C443.838 255.319 444.139 258.939 441.155 262.503C438.546 265.618 435.836 266.339 432.168 267.568C430.007 268.292 429.856 267.625 428.106 266.403C426.442 265.242 424.631 264.311 422.99 263.114C419.454 260.533 415.92 257.872 412.483 255.157C411.328 254.245 411.498 254.556 411.674 253.461C411.834 252.463 412.551 251.193 412.942 250.244C413.65 248.527 414.484 246.865 415.319 245.206C416.266 243.325 417.092 241.281 418.269 239.526C418.757 238.798 419.337 238.14 419.907 237.476C421.107 236.078 421.064 236.13 422.499 237.272C425.529 239.685 428.347 242.297 431.757 244.183C435.79 246.416 439.815 248.663 443.838 250.916ZM352.495 216.808C352.058 210.486 351.564 204.2 350.807 197.907C350.417 194.676 349.964 191.454 349.523 188.229C349.344 186.916 348.651 184.713 349.037 183.438C349.416 182.182 351.09 180.988 352.008 180.079C352.255 179.835 353.014 178.811 353.34 178.765C353.689 178.716 355.004 179.679 355.383 179.896C356.724 180.665 358.041 181.473 359.338 182.315C361.782 183.9 364.15 185.602 366.468 187.367C371.327 191.069 375.961 195.052 380.717 198.883C376.36 202.702 370.996 205.668 366.124 208.761C363.243 210.59 360.348 212.399 357.415 214.143C355.928 215.026 354.203 216.377 352.495 216.808ZM412.064 329.848C415.583 332.174 418.943 334.63 422.923 336.123C426.884 337.61 430.8 338.182 434.894 339.065C436.959 339.511 438.9 339.998 441.007 340.31C442.188 340.485 444.016 340.417 445.093 340.916C446.052 340.712 446.394 341.039 446.117 341.897C446.107 342.164 446.097 342.431 446.086 342.697C445.815 346.408 443.43 350.873 441.35 353.89C440.135 355.652 438.588 357.291 437.05 358.771C435.314 360.443 434.313 361.622 431.894 360.922C427.815 359.741 424.215 357.364 420.08 356.316C416.81 355.487 414.093 353.749 410.904 352.85C406.971 351.741 403.078 350.477 399.091 349.55C400.872 346.112 402.465 342.532 404.745 339.383C407.084 336.151 409.663 333.045 412.064 329.848ZM390.483 214.152C383.124 215.617 375.148 216.973 368.562 220.772C365.992 222.254 362.734 224.546 361.981 227.612C361.081 231.277 364.619 233.548 367.574 234.692C371.122 236.065 374.984 236.591 378.744 237.024C380.734 237.254 382.733 237.379 384.732 237.492C386.35 237.584 389.094 237.229 390.573 237.87C391.5 237.686 391.821 238.061 391.537 238.997C391.554 239.333 391.571 239.67 391.588 240.006L391.741 243.028C391.844 245.04 391.946 247.052 392.048 249.064C392.27 253.448 392.493 257.831 392.715 262.215C388.861 259.826 385.755 256.407 381.987 253.86C380.196 252.648 378.418 251.434 376.635 250.227C375.887 249.722 375.429 249.012 374.693 248.541C373.717 247.915 372.852 247.539 371.936 246.72C368.196 243.375 364.037 240.484 360.07 237.413C358.268 236.018 356.296 234.735 354.581 233.239C352.786 231.671 353.034 230.38 353.078 228.126C353.124 225.74 352.249 222.778 352.655 220.477C352.314 219.696 352.576 219.21 353.44 219.019C354.018 218.65 354.595 218.281 355.173 217.911C356.325 217.174 357.476 216.438 358.628 215.702C363.21 212.772 367.791 209.841 372.373 206.911C374.661 205.448 376.95 203.984 379.239 202.521C379.878 202.112 381.963 200.265 382.681 200.32C383.412 200.375 384.681 201.803 385.23 202.258C386.071 202.955 386.888 203.688 387.797 204.298C388.25 204.612 388.723 204.892 389.215 205.138C390.003 205.214 390.276 205.647 390.037 206.435C390.728 208.654 390.348 211.822 390.483 214.152ZM288.437 318.729C290.103 310.939 292.252 301.715 298.752 296.416C305.344 291.041 314.981 293.118 320.137 299.429C322.72 302.59 324.321 306.328 325.51 310.201C326.731 314.175 328.53 319.354 328.201 323.558C328.057 325.401 326.478 327.382 325.575 328.989C324.644 330.65 324.026 333.031 321.831 332.456C318.428 331.564 314.967 329.516 311.783 328.05C308.562 326.567 305.171 325.347 301.832 323.915C299.614 322.964 297.312 322.241 295.101 321.276C293.003 320.362 290.236 320.142 288.437 318.729ZM189.972 272.33C185.324 273.994 182.909 271.331 179.638 268.333C176.54 265.493 173.183 262.761 170.33 259.675C167.388 256.492 165.062 252.73 162.799 249.054C160.512 245.339 157.421 241.326 156.013 237.188C155.296 235.083 154.991 232.751 154.539 230.575C154.43 230.051 153.701 228.102 153.933 227.662C154.252 227.056 156.281 226.992 156.839 226.903C161.274 226.202 165.973 226.167 170.422 226.794C179.029 228.007 186.227 232.834 188.947 241.274C192.136 251.168 190.604 262.165 189.972 272.33ZM220.109 186.511C220.181 188.224 216.074 188.7 215.01 189.1C212.551 190.022 210.105 190.997 207.717 192.088C202.798 194.336 197.554 195.801 192.844 198.519C182.692 204.378 171.671 208.509 161.415 214.113C159.817 214.986 156.694 217.09 154.868 216.912C153.898 216.818 154.621 217.599 153.992 216.057C153.766 215.501 153.69 214.78 153.563 214.185C153.183 212.403 152.889 210.605 152.462 208.833C151.76 205.917 151.043 203.211 150.747 200.213C150.621 198.943 150.484 197.675 150.469 196.397C150.453 195.102 150.155 191.858 150.74 190.737C151.128 189.994 151.205 190.249 152.174 190.039C152.729 189.919 153.311 189.669 153.846 189.502C155.102 189.111 156.36 188.736 157.677 188.621C158.979 188.507 159.809 188.111 161.03 187.881C162.31 187.64 163.626 187.932 164.93 187.596C166.339 187.232 167.011 186.9 168.482 187.039C169.909 187.174 170.319 186.857 171.716 186.469C172.882 186.144 174.271 186.371 175.487 186.273C176.958 186.153 178.424 185.969 179.896 185.852C186.514 185.329 193.21 186.105 199.843 186.044C203.451 186.01 206.98 186.543 210.582 186.378C213.73 186.235 216.984 186.269 220.109 186.511ZM202.892 221.391C206.112 222.617 209.097 224.609 212.082 226.324C215.523 228.301 218.818 230.403 222.003 232.774C227.358 236.763 233.608 241.544 235.018 248.504C236.464 255.646 230.262 261.498 224.446 264.42C217.815 267.752 210.099 269.475 202.835 270.748C203.612 254.306 203.429 237.837 202.892 221.391ZM299.203 260.099C301.156 260.639 302.809 261.795 304.621 262.65C306.244 263.416 307.814 263.994 309.33 264.98C311.801 266.587 314.664 267.963 317.247 269.206C323.637 272.281 329.841 276.099 336.167 279.506C337.844 280.41 338.393 280.98 338.961 282.84C339.578 284.859 340.159 286.892 340.753 288.918C341.307 290.808 342.192 292.829 341.959 294.824C341.756 296.56 340.858 298.197 340.181 299.78C338.477 303.764 336.63 307.685 334.721 311.574C333.008 315.065 331.445 318.77 329.246 321.979C327.537 313.066 326.004 303.079 319.379 296.287C312.759 289.501 302.199 289.405 295.82 296.411C292.79 299.738 290.945 303.93 289.495 308.141C288.734 310.354 288.223 312.609 287.733 314.894C287.209 317.335 287.338 318.63 284.645 317.89C282.506 317.303 280.238 316.834 278.142 316.164C277.054 315.817 275.993 315.426 275.944 314.567C275.881 313.482 277.342 311.26 277.774 310.239C280.002 304.97 282.231 299.7 284.459 294.431C286.879 288.709 289.299 282.987 291.72 277.266C292.928 274.411 294.136 271.557 295.344 268.702C296.446 266.1 297.364 262.236 299.203 260.099ZM202.711 215.604C202.675 213.002 202.632 210.401 202.598 207.798C202.578 206.248 201.887 203.25 203.237 202.142C204.074 201.456 206.558 200.93 207.617 200.46C209.706 199.533 211.969 199.12 214.071 198.199C222.302 194.593 230.869 191.59 239.345 188.684C241.172 188.057 243.04 187.544 244.88 186.927C245.873 186.594 249.552 184.637 250.471 185.149C251.276 185.597 251.883 190.932 252.14 192.04C252.75 194.663 253.334 197.292 253.894 199.926C256.07 210.151 257.894 220.449 259.591 230.763C255.083 229.051 250.762 226.085 246.502 223.792C242.077 221.41 237.668 219.034 233.213 216.707C231.956 216.049 227.532 213.03 226.496 214.215C224.836 216.117 228.793 218.347 229.832 219.162C233.85 222.313 238.094 225.061 242.391 227.809C246.844 230.659 251.478 233.176 255.953 235.973C257.569 236.982 260.148 238.211 260.783 239.917C261.599 242.11 261.01 244.777 260.266 246.872C258.44 252.022 256.439 257.109 254.324 262.147C253.362 264.438 252.376 266.718 251.371 268.99C250.174 271.695 248.604 272.267 245.996 273.512C234.887 278.817 223.348 283.851 212.678 289.99C214.464 292.048 218.816 288.668 220.578 287.812C223.842 286.227 227.109 284.647 230.37 283.057C236.446 280.095 242.491 277.075 248.601 274.184C244.685 283.091 240.064 291.672 234.94 299.94C236.234 300.378 235.918 300.401 236.73 299.623C237.414 298.967 237.873 297.684 238.336 296.861C239.294 295.161 240.239 293.455 241.204 291.759C243.206 288.241 245.281 284.775 247.109 281.16C248.484 278.442 249.549 273.691 252.374 272.321C255.895 270.612 259.463 268.95 262.984 267.217C262.984 280.758 262.01 293.999 260.582 307.456C260.51 308.135 259.859 310.138 261.171 309.942C261.763 309.853 261.962 306.14 262.066 305.365C262.543 301.81 262.948 298.247 263.279 294.676C263.938 287.551 264.296 280.397 264.343 273.241C265.187 280.198 266.032 287.155 266.877 294.112L268.078 304.002C268.289 305.733 268.499 307.465 268.709 309.196C268.806 309.992 268.745 311.032 269.024 311.79C269.464 312.984 269.316 312.893 270.695 313.437C269.377 304.378 268.159 295.303 267.083 286.212C266.557 281.776 266.064 277.336 265.61 272.892C265.488 271.697 265.369 270.501 265.252 269.306C265.193 268.697 264.667 266.737 264.959 266.231C265.247 265.729 267.163 265.206 267.714 264.95C268.921 264.389 270.128 263.83 271.334 263.266C275.25 261.436 279.162 259.592 283.034 257.672C284.728 256.833 286.505 255.535 288.347 255.087C290.181 254.641 291.515 255.918 293.083 256.729C294.304 257.361 297.179 258.202 297.995 259.274C298.753 260.273 296.397 264.268 295.778 265.741C294.032 269.897 292.286 274.053 290.539 278.208C286.999 286.634 283.458 295.06 279.917 303.486C279.052 305.545 278.186 307.605 277.321 309.665C276.766 310.985 275.84 314.746 274.495 314.894C273.899 314.959 272.921 314.311 272.346 314.125C271.487 313.847 270.694 313.851 269.832 313.705C268.253 313.437 266.613 312.622 265.062 312.051C261.077 310.582 256.945 309.633 252.927 308.261C248.89 306.882 244.92 305.333 240.899 303.954C237.247 302.703 233.563 301.276 230.055 299.646C226.35 297.923 222.551 296.405 218.941 294.495C212.366 291.018 205.863 287.77 200.053 283.504C198.688 282.502 197.233 281.494 195.881 280.421C194.697 279.478 192.436 278.315 191.63 277.076C191.323 276.603 191.059 275.677 191.418 275.116C191.803 274.514 193.509 274.569 194.306 274.461C196.821 274.124 199.335 273.786 201.848 273.448C201.655 275.102 201.461 276.754 201.32 278.413C201.223 279.584 200.53 282.68 201.464 283.598C202.747 282.378 202.335 278.73 202.45 277.105C202.511 276.236 202.29 274.536 202.679 273.765C203.105 272.921 204.283 272.932 205.351 272.701C209.878 271.722 214.364 270.9 218.744 269.348C226.145 266.727 234.991 262.301 236.643 253.765C238.367 244.865 230.795 237.155 224.419 232.191C220.602 229.22 216.541 226.647 212.341 224.258C210.377 223.142 208.416 222.026 206.44 220.934C205.721 220.537 203.362 219.719 202.983 219.024C202.595 218.313 202.793 216.413 202.711 215.604ZM361.039 352.275C361.398 352.45 361.758 352.626 362.117 352.801C358.123 341.42 354.166 330.09 350.827 318.495C349.215 312.898 347.582 307.307 345.915 301.726C345.195 299.319 343.428 296.004 343.919 293.51C344.45 290.811 345.725 287.941 346.711 285.374C353.022 289.342 359.466 293.106 365.883 296.893C371.636 300.29 377.486 303.311 383.279 306.671C386.247 308.393 389.309 309.556 392.407 310.963C394.925 312.106 393.947 315.602 393.911 317.936C393.784 326.18 393.79 334.452 393.29 342.683C393.108 345.682 393.343 349.125 391.434 351.621C388.992 354.812 386.728 358.065 384.501 361.424C383.667 362.683 380.163 369.496 378.856 369.347C378.003 369.25 377.217 366.491 376.791 365.837C375.871 364.426 374.526 363.213 373.302 362.078C368.016 357.173 362.15 353.719 356.054 350.134C349.86 346.493 343.522 343.103 337.211 339.65C335.785 338.87 334.25 338.307 332.833 337.51C332.274 337.195 331.164 336.694 330.812 336.132C330.285 335.289 330.463 332.956 330.353 331.948C330.129 329.891 329.725 327.754 329.703 325.681C329.682 323.634 330.913 321.875 331.805 320.091C335.722 312.253 339.527 304.396 342.934 296.32C345.621 305.697 348.441 315.03 351.077 324.421C352.453 329.324 354.111 334.148 355.726 338.976C356.551 341.442 357.38 343.906 358.204 346.373C358.845 348.293 359.178 351.106 361.039 352.275ZM304.791 175.556C306.867 175.579 308.749 175.274 310.78 174.84C311.525 174.682 312.179 174.615 312.934 174.548C313.791 174.473 314.568 174.009 315.319 173.918C315.886 173.85 316.877 174.088 317.419 174.27C318.674 174.69 318.634 174.478 318.687 175.936C318.769 178.188 318.83 180.442 318.954 182.692C319.441 191.552 320.382 200.325 321.671 209.098C321.932 210.872 322.663 213.198 322.261 214.959C321.899 216.547 320.527 218.243 319.621 219.575C317.757 222.314 313.368 223.667 310.28 224.444C307.024 225.263 303.643 225.565 300.549 226.295C299.692 226.498 298.708 226.141 297.795 226.344C296.95 226.532 296.293 226.996 295.513 227.331C293.6 228.153 291.462 228.304 289.487 228.938C285.569 230.195 281.375 230.12 277.454 231.328C276.451 231.636 275.585 232.414 274.621 232.68C273.739 232.923 272.831 232.637 271.908 232.773C269.952 233.061 268.129 233.729 267.678 235.828C266.482 234.882 266.316 235.131 266.523 233.667C266.655 232.728 267.178 231.585 267.464 230.68C268.194 228.372 268.927 226.066 269.656 223.759C271.098 219.192 272.532 214.622 273.861 210.022C275.051 205.907 276.132 201.761 277.077 197.583C277.558 195.458 277.96 193.325 278.372 191.189C278.492 190.569 278.373 189.584 278.995 189.172C279.56 188.798 280.879 190.14 281.475 190.572C285.643 193.591 295.201 202.519 300.411 197.252C303.217 194.416 303.053 189.43 302.748 185.766C302.561 183.514 302.165 181.291 301.723 179.077C301.613 178.524 300.937 176.749 301.185 176.356C301.452 175.933 304.233 175.68 304.791 175.556ZM158.365 224.834C157.256 224.959 156.147 225.083 155.038 225.208C155.139 224.312 155.048 222.964 155.387 222.129C155.857 220.975 157.005 220.847 158.269 220.369C160.268 219.613 162.306 218.956 164.282 218.142C168.572 216.377 172.842 214.586 177.135 212.821C179.016 212.047 181.226 210.78 183.269 211.412C185.472 212.095 187.646 213.484 189.706 214.501C192.037 215.653 194.368 216.808 196.698 217.963C197.791 218.505 198.884 219.046 199.977 219.588C201.694 220.438 201.922 220.524 202.058 222.467C202.748 232.406 202.696 242.73 202.396 252.681C202.242 257.76 202.414 262.866 202.05 267.935C202.022 268.325 202.051 270.526 201.807 270.826C201.463 271.248 199.043 271.391 198.465 271.497C196.211 271.909 193.941 272.046 191.663 272.25C192.199 260.69 194.171 247.025 188.234 236.452C182.272 225.829 169.526 223.528 158.365 224.834ZM262.024 111.113C261.356 109.59 260.204 108.305 259.221 106.969C258.689 106.247 257.768 105.383 257.427 104.538C256.943 103.336 256.945 103.593 257.67 102.54C258.355 101.545 258.341 101.47 259.4 101.292C260.291 101.142 261.241 101.396 262.151 101.233C263.072 101.068 265.603 100.292 265.023 98.8272C265.048 98.8913 263.584 98.1695 263.47 98.0443C263.102 97.6437 262.986 96.7895 262.804 96.3052C262.219 94.7528 262.014 93.7478 262.665 92.0948C263.639 89.6267 267.488 88.8962 269.884 89.7267C271.082 90.1413 271.764 91.0206 272.303 92.1256C272.645 92.8274 272.724 93.8417 273.166 94.4527C273.833 95.3725 273.874 95.2704 275.257 95.1078C277.017 94.9011 278.461 94.2249 280.129 93.7534C281.945 93.2394 283.127 94.2849 284.714 95.1278C287.58 96.6505 290.348 97.1789 293.558 97.4205C297.132 97.6898 300.445 96.828 303.985 96.6058C303.066 100.836 300.692 104.27 298.793 108.1C298.46 108.774 297.921 109.462 297.908 110.241C297.895 110.976 298.958 111.974 298.838 112.582C298.582 113.878 295.73 114.915 294.65 115.28C291.594 116.31 288.114 118.328 284.75 117.518C282.906 117.073 281.914 114.161 280.178 113.947C277.85 113.659 279.592 116.657 280.025 117.688C276.72 118.191 272.532 117.765 269.369 116.644C267.784 116.083 266.441 115.245 264.994 114.415C263.192 113.381 262.818 113.096 262.024 111.113ZM319.849 174.066C325.74 174.164 331.718 173.316 337.622 174.095C338.99 174.275 340.339 174.566 341.683 174.874C342.65 175.096 345.718 175.284 346.362 176.002C346.949 176.658 346.953 179.674 347.074 180.524C347.344 182.417 347.272 183.07 346.065 184.534C342.093 189.35 337.956 194.023 334.043 198.892C330.283 203.57 327.197 208.797 323.397 213.408C321.368 207.501 321.246 200.411 320.689 194.217C320.392 190.914 320.122 187.609 319.868 184.303C319.626 181.154 318.804 177.068 319.849 174.066ZM396.099 236.324C395.418 236.324 394.331 236.538 393.669 236.324C392.758 236.614 392.454 236.273 392.755 235.3C392.741 234.96 392.726 234.619 392.712 234.279C392.617 232.084 392.512 229.891 392.41 227.697C392.317 225.691 392.226 223.684 392.147 221.678C392.093 220.308 391.401 216.912 391.954 215.675C392.326 214.844 393.207 215.033 394.279 214.911C395.298 214.796 396.321 214.689 397.334 214.531C398.621 214.33 400.047 213.87 401.357 214.158C402.672 214.448 403.628 215.662 404.66 216.435C406.294 217.656 407.963 218.833 409.61 220.035C412.604 222.222 415.568 224.448 418.537 226.668C419.763 227.584 419.998 227.266 419.4 228.584C419.031 229.397 418.19 230.318 417.678 231.053C416.658 232.517 415.643 234.737 414.335 235.925C412.433 237.654 407.153 236.556 404.625 236.544C401.743 236.529 398.965 236.574 396.099 236.324ZM388.639 236.181C386.139 235.937 383.614 236.042 381.13 235.706C378.43 235.341 375.749 234.799 373.053 234.393C370.366 233.99 362.191 232.356 362.998 228.345C363.851 224.105 370.109 221.566 373.572 220.141C378.98 217.915 384.626 216.723 390.315 215.465C391.029 219.265 390.926 223.345 391.057 227.196C391.127 229.288 391.189 231.382 391.188 233.476C391.188 233.979 391.361 235.025 391.156 235.493C390.672 236.596 390.11 236.181 388.639 236.181ZM396.858 238.003H412.811C410.45 242.89 408.219 247.868 405.674 252.663C403.139 257.439 399.875 261.939 396.999 266.523C396.27 265.731 395.108 264.871 394.613 263.928C394.065 262.884 394.08 261.349 393.991 260.14C393.758 257.005 393.651 253.842 393.572 250.699C393.503 247.946 393.382 245.213 393.171 242.467C393.125 241.865 392.46 238.737 392.84 238.223C393.179 237.765 396.161 238.007 396.858 238.003ZM331.158 142.048C328.467 142.048 325.773 142.014 323.082 142.059C320.64 142.101 317.458 141.675 315.221 142.933C310.664 145.494 319.774 152.071 321.621 153.727C318.634 154.809 313.973 152.661 311.048 151.676C307.433 150.459 303.746 149.642 300.057 148.689C299.136 148.451 295.181 147.984 294.681 147.278C294.185 146.578 295.296 142.353 295.407 141.462C295.511 140.625 295.423 139.318 295.772 138.53C295.558 137.584 295.891 137.252 296.77 137.536C297.073 137.535 297.376 137.534 297.68 137.533C299.924 137.551 302.17 137.655 304.412 137.729C312.12 137.986 319.64 138.328 327.282 139.531C330.835 140.09 334.419 140.778 337.953 141.464C340.928 142.042 340.427 142.527 337.649 142.534C335.475 142.54 333.321 142.217 331.158 142.048ZM110.057 85.3697C109.6 84.8438 109.141 84.3175 108.683 83.7911C109.799 83.4725 110.915 83.1534 112.031 82.8348C113.217 82.4962 113.856 82.5737 113.328 81.248C112.667 79.5874 109.649 79.3971 108.198 79.3345C103.203 79.1185 97.9555 80.7078 93.2101 82.1079C90.8948 82.7912 89.0797 83.8485 87.1205 85.2547C86.2653 85.8688 85.2777 86.4455 84.5292 87.1832C83.7515 87.9496 83.4278 88.9316 82.6675 89.7001C81.4203 90.96 79.8243 91.5875 79.2128 93.4061C78.511 95.4936 79.3488 97.8833 80.3876 99.7035C81.4414 101.551 83.0066 102.948 84.2779 104.626C85.287 105.958 87.3939 109.597 84.1014 109.175C82.3602 108.952 80.1019 105.983 78.8486 104.8C77.0525 103.103 75.2856 101.368 73.3834 99.7876C71.6965 98.3865 69.7532 96.9501 67.4975 96.7038C65.1201 96.4442 63.9325 97.9659 62.7736 99.8163C61.6808 101.562 61.5054 103.265 60.7369 105.052C60.366 105.913 59.894 106.393 59.676 107.332C59.3409 108.776 59.3061 110.352 59.1352 111.824C58.8664 114.136 58.6135 115.954 59.0613 118.22C59.481 120.34 59.5954 122.592 59.9489 124.75C60.349 127.193 60.682 129.647 61.0765 132.091C61.4105 134.162 62.6812 137.11 61.4346 139.036C58.4396 143.663 54.8464 136.851 53.9004 134.307C52.2372 129.835 51.3907 124.947 49.9229 120.384C49.137 117.943 48.451 115.48 48.0006 112.953C47.6277 110.864 47.8113 108.318 46.6663 106.457C45.7762 105.011 44.193 103.913 42.4554 104.354C40.2812 104.907 39.446 108.05 38.8063 109.96C37.1179 114.999 37.7392 119.537 38.4266 124.676C38.7447 127.056 39.0484 129.439 39.5948 131.779C39.9636 133.357 41.4909 136.552 39.2203 137.41C36.0011 138.628 32.589 129.393 31.6717 127.308C29.2697 121.845 28.3499 116.428 27.3597 110.576C27.1325 109.23 26.9586 107.856 26.6184 106.533C26.3224 105.382 25.438 104.219 25.3585 103.067C25.2789 101.915 26.0418 101.111 25.2599 99.98C24.6094 99.0386 23.4341 98.9816 22.3722 98.9734C19.8779 98.9539 17.4918 100.049 15.1714 100.844C13.0116 101.583 9.81702 103.205 7.48944 102.683C14.7943 95.2663 22.0807 87.9337 30.7934 82.1576C34.8391 79.475 38.8878 76.8971 43.2608 74.7096C47.6902 72.4939 52.7661 70.9974 57.51 69.6569C60.09 68.9273 62.6556 68.1009 65.2032 67.2641C67.4713 66.5192 69.7542 66.3781 71.9751 65.5332C76.8001 63.6981 82.1914 62.9871 87.1872 61.6861C89.3932 61.112 91.6233 60.6195 93.8344 60.0875C96.1584 59.5283 99.4232 58.5571 101.791 58.6515C103.813 58.7321 104.496 61.0494 105.468 62.6613C106.881 65.0012 108.085 67.4324 109.195 69.9282C111.47 75.042 113.871 80.3251 115.499 85.6677C116.392 88.6012 117.274 91.5377 118.152 94.4758C118.911 97.0193 120.811 100.688 120.306 103.299C116.565 97.5329 113.081 91.5449 110.057 85.3697ZM284.245 137.433C286.23 137.523 288.215 137.613 290.2 137.703C288.221 144.209 288.497 151.135 288.497 157.878C279.247 156.788 269.924 156.602 260.62 156.677C262.329 153.38 261.666 149.102 261.179 145.571C260.894 143.504 260.735 141.513 260.777 139.427C260.815 137.471 260.252 135.826 262.324 135.221C263.969 134.742 265.008 135.541 266.574 135.906C268.45 136.342 270.494 136.395 272.404 136.633C276.379 137.127 280.212 137.417 284.245 137.433ZM337.542 150.102C331.581 148.448 325.247 149.058 319.256 147.801C320.619 146.557 323.186 147.294 324.995 147.397C327.053 147.514 329.108 147.6 331.166 147.7C333.172 147.798 338.737 147.646 339.461 150.199C338.822 150.167 338.182 150.134 337.542 150.102ZM119.436 57.922C127.236 58.6064 135.405 58.5002 143.149 59.8612C152.017 61.4198 161.262 62.3976 169.861 65.1443C178.295 67.8392 186.897 69.7256 195.212 72.8899C203.296 75.966 211.081 79.2385 218.693 83.353C222.419 85.3666 226.044 87.5013 229.596 89.8139C233.064 92.0718 236.863 93.9227 240.223 96.316C243.214 98.4466 245.794 100.401 248.402 103.011C251.19 105.802 253.902 108.668 256.692 111.454C259.021 113.779 257.547 119.462 257.399 122.555C257.195 126.844 256.841 131.073 256.315 135.333C255.815 139.393 255.3 143.757 255.961 147.808C256.239 149.512 257.197 152.454 256.74 154.154C256.374 155.516 253.945 156.514 252.706 156.958C251.191 157.5 249.643 157.272 248.088 157.962C246.351 158.734 244.887 159.697 243.043 160.102C240.77 160.603 238.214 161.023 235.878 161.039C233.717 161.053 231.55 161.752 229.396 162.183C225.892 162.885 222.471 163.104 222.689 167.329C222.941 172.205 224.876 176.389 226.028 181.017C224.47 181.017 223.384 181.117 221.958 180.564C220.293 179.92 218.516 179.749 216.766 179.471C212.9 178.855 209.131 178.658 205.239 178.266C198.11 177.547 190.857 177.633 183.723 177.709C180.111 177.747 176.192 178.026 172.63 178.588C168.975 179.165 165.19 179.526 161.648 180.632C158.66 181.566 155.575 182.202 152.527 183.027C151.153 183.399 149.508 183.7 148.21 184.116C146.329 184.719 145.324 186.004 143.153 185.975C143.764 181.952 145.199 178.221 146.065 174.233C146.969 170.067 148.773 166.381 150.763 162.452C151.651 160.699 152.309 158.838 153.165 157.07C154.117 155.104 155.455 153.475 156.605 151.637C158.957 147.876 161.468 144.258 163.779 140.47C165.796 137.163 168.1 133.993 170.309 130.801C172.736 127.292 176.11 124.643 178.866 121.423C180.029 120.063 181.136 118.8 182.439 117.551C183.639 116.402 185.341 113.859 187.178 113.74C188.234 113.671 190.063 114.265 191.071 114.584C192.935 115.174 194.913 115.559 196.838 116.079C198.945 116.648 201.016 117.388 203.126 117.929C203.971 118.145 204.974 118.042 205.775 118.287C206.612 118.543 207.28 119.108 208.196 119.367C212.714 120.649 217.204 122.103 221.755 123.27C226.441 124.472 231.198 125.495 235.739 127.196C236.605 127.521 237.568 128.288 238.233 127.784C238.729 127.408 239.05 126.344 238.919 125.723C238.483 123.657 235.178 122.91 233.586 122.081C229.322 119.857 225.085 118.29 220.501 116.78C218.243 116.037 215.994 115.244 213.705 114.602C211.791 114.066 209.8 113.159 207.843 112.884C206.103 112.64 204.867 111.955 203.14 111.348C200.595 110.454 197.978 109.72 195.392 108.956C190.972 107.65 186.287 107.101 181.765 106.225C171.288 104.196 160.411 103.18 149.72 103.306C144.33 103.37 138.692 103.212 133.365 104.099C132.081 104.312 129.381 104.271 128.495 105.424C128.02 106.042 128.277 106.963 128.155 107.634C127.949 108.765 127.332 109.293 126.797 110.324C125.659 104.744 124.352 99.2833 122.884 93.7853C121.557 88.8095 120.328 83.7434 118.554 78.8374C116.677 73.6466 114.401 68.1429 111.595 63.3924C111.018 62.4145 109.577 60.8611 109.454 59.7674C109.326 58.6387 110.907 57.7645 111.994 57.6388C114.432 57.3572 117.042 57.8394 119.436 57.922ZM67.0378 137.648C66.2441 129.908 63.9243 121.812 65.2202 114.041C65.7686 110.752 66.1969 107.612 67.8422 104.642C68.6743 103.141 69.0078 102.038 70.5961 102.923C72.2039 103.819 73.684 106.033 75.0168 107.316C77.4665 109.675 80.0321 112.103 82.9655 113.855C85.2762 115.234 89.8657 116.541 91.6028 113.558C93.2578 110.714 91.0503 106.747 89.4655 104.401C87.652 101.718 84.2168 99.232 86.1447 95.921C86.9743 94.4958 88.1681 94.1223 89.4229 93.1871C90.509 92.3775 91.4191 91.3289 92.5057 90.505C95.6536 88.1169 99.1062 87.0939 102.741 85.7293C104.419 85.0988 104.64 84.5057 105.609 85.9468C106.662 87.512 107.239 89.7057 108 91.4366C109.525 94.9042 111.151 98.1895 113.117 101.423C115.101 104.685 116.859 108.094 118.734 111.421C119.441 112.677 120.107 113.953 120.943 115.131C121.399 115.772 121.962 116.344 122.332 117.046C122.88 118.083 122.636 119.029 122.977 120.063C124.447 124.521 126.591 118.297 127.001 116.842C127.467 115.187 128.591 113.897 129.32 112.354C129.921 111.079 130.332 109.184 131.785 108.584C132.975 108.092 134.509 108.767 135.723 108.833C137.955 108.954 140.203 108.773 142.444 108.913C144.54 109.043 146.631 109.244 148.726 109.372C150.823 109.501 152.918 109.147 154.988 109.367C158.701 109.763 162.498 109.7 166.204 110.249C170.552 110.892 174.856 111.578 179.216 112.114C178.203 114.03 176.103 114.861 174.442 116.228C172.958 117.45 171.783 118.861 170.288 120.023C168.771 121.203 167.869 122.948 166.614 124.366C165.384 125.755 164.245 126.92 163.167 128.474C157.966 135.977 152.6 143.204 148.31 151.313C146.138 155.418 144.065 159.81 142.581 164.213C140.99 168.937 140.209 174.002 139.263 178.886C138.792 181.32 138.546 183.375 139.062 185.823C139.197 186.406 139.338 186.988 139.485 187.568C139.937 188.263 139.77 188.713 138.982 188.92C138.521 189.591 137.892 189.843 137.852 190.762C137.821 191.459 138.21 192.268 138.81 192.661C139.97 193.421 139.97 192.395 141.166 192.622C141.615 192.865 142.063 193.107 142.511 193.349C142.747 192.989 142.991 192.633 143.241 192.282C144.003 191.557 144.61 191.623 145.606 191.447C145.1 197.278 145.907 202.485 147.191 208.174C147.808 210.909 148.867 213.586 149.4 216.326C149.996 219.388 148.694 220.782 146.68 222.824C147.191 223.091 148.086 223.38 148.508 223.779C149.179 224.415 149.008 224.493 149.007 225.487C149.006 227.309 149.356 229.104 149.642 230.895C150.171 234.211 150.655 237.643 151.797 240.819C153.871 246.587 157.224 252.577 160.639 257.657C162.551 260.501 164.467 263.731 166.863 266.184C169.267 268.645 171.651 271.129 174.05 273.599C178.771 278.459 183.931 281.817 189.587 285.455C191.827 286.897 194.186 288.476 196.112 290.271C198.07 292.094 200.674 293.37 203.013 294.695C204.057 295.286 204.8 296.135 205.927 296.62C206.986 297.075 207.726 297.224 208.614 297.821C210.818 299.302 213.197 300.569 215.624 301.686C218.583 303.049 221.495 304.634 224.534 305.797C225.918 306.327 227.221 306.905 228.562 307.525C230.013 308.195 231.579 308.635 233.068 309.35C234.326 309.954 235.599 310.305 236.88 310.798C237.926 311.201 238.746 311.854 239.813 312.276C242.028 313.15 244.043 313.621 246.195 314.652C249.054 316.023 252.442 316.662 255.453 317.648C258.816 318.749 262.304 319.845 265.754 320.626C267.223 320.959 268.473 321.393 269.891 321.896C270.815 322.224 271.875 322.404 272.898 322.715C275.726 323.578 278.553 324.409 281.396 325.142C286.951 326.575 292.626 328.295 298.014 330.24C300.838 331.259 303.704 332.487 306.413 333.785C309.477 335.252 312.777 336.099 315.852 337.552C321.791 340.358 327.71 343.246 333.581 346.192C336.664 347.739 339.703 349.333 342.713 351.016C343.805 351.626 345 351.878 346.085 352.477C347.504 353.26 348.668 354.41 350.122 355.186C355.724 358.178 361.441 360.997 366.587 364.782C369.28 366.764 372.173 368.793 374.5 371.205C375.268 372.001 376.599 373.233 376.738 374.388C376.943 376.096 376.751 374.524 376.16 375.578C375.34 375.677 375.155 375.992 375.602 376.522C375.808 376.77 376.072 376.897 376.394 376.902C377.429 377.111 379.364 376.015 380.196 375.556C381.637 374.762 382.402 373.758 383.327 372.425C385.337 369.532 387.299 366.614 389.369 363.762C391.231 361.197 393.053 358.374 395.171 356.018C396.607 354.422 396.715 355.119 398.313 356.019C399.501 356.689 400.882 356.975 402.114 357.605C406.807 360.01 411.967 361.785 416.781 363.461C417.877 363.842 418.462 364.448 419.425 364.975C420.652 365.646 422.207 365.975 423.519 366.452C427.134 367.766 430.732 369.131 434.321 370.514C437.093 371.582 439.756 372.424 441.925 374.396C442.789 375.181 443.834 375.743 444.725 376.537C445.764 377.46 447.168 378.962 448.475 379.484L449.271 380.106C449.81 379.731 450.349 379.357 450.889 378.984C451.425 378.613 451.961 378.244 452.495 377.872C453.838 376.939 455.171 375.992 456.505 375.047C459.532 372.902 462.577 370.779 465.392 368.357C470.393 364.057 475.581 359.988 480.81 355.961C486.298 351.734 491.648 347.311 497.324 343.338C502.469 339.737 508.082 336.696 513.07 332.896C515.581 330.982 518.085 329.057 520.649 327.204C520.788 327.104 522.874 325.824 522.895 325.681C522.931 325.42 522.244 324.737 522.042 324.517C521.082 323.474 520.019 322.546 519.064 321.492C514.609 316.579 508.793 316.751 502.645 316.519C499.858 316.414 496.834 317.699 494.187 318.575C490.949 319.645 487.826 321.216 484.698 322.572C478.253 325.367 471.601 327.756 465.091 330.345C462.531 331.363 459.981 331.86 457.378 332.56C454.738 333.27 452.018 332.593 449.194 332.644C447.728 332.67 446.342 332.755 444.866 332.672C443.99 332.623 442.98 332.457 442.115 332.472C441.414 332.484 440.686 332.773 440.04 332.7C437.215 332.38 434.231 331.931 431.317 331.564C428.424 331.199 425.439 331.018 422.584 330.447C421.146 330.16 419.728 329.753 418.345 329.266C417.144 328.843 414.962 328.362 413.977 327.505C413.095 326.738 413.481 326.727 413.972 325.476C414.167 324.982 414.368 324.232 414.656 323.755C415.435 322.467 416.188 322.063 415.735 320.451C414.936 317.611 412.214 315.798 409.883 314.399C404.633 311.249 399.831 307.209 394.302 304.536C382.911 299.031 372.53 291.879 361.421 285.832C349.21 279.186 337.659 271.387 325.278 265.021C313.754 259.096 302.282 253.137 290.662 247.398C284.988 244.597 278.571 242.033 273.422 238.361C276.275 238.007 279.135 237.55 281.998 237.296C283.325 237.179 284.669 237.287 285.989 237.077C287.465 236.841 288.861 236.243 290.335 235.995C292.869 235.567 295.147 234.699 297.683 234.379C300.402 234.035 303.065 233.236 305.797 233.012C311.511 232.544 316.669 230.436 321.678 227.78C322.918 227.122 323.937 227.498 325.125 227.051C325.78 226.805 326.475 225.822 327.21 225.295C329.235 223.841 330.973 222.124 332.898 220.536C336.943 229.615 344.887 235.79 352.468 241.881C356.308 244.965 360.476 247.58 364.355 250.606C367.363 252.953 370.094 255.053 373.305 256.919C376.387 258.71 379.283 261.128 382.222 263.279C384.214 264.737 386.549 265.838 388.667 267.104C390.398 268.138 393.778 269.681 394.25 271.557C394.636 273.09 393.882 274.914 396.222 274.209C398.316 273.579 399.835 271.253 401.055 269.615C404.21 265.376 407.153 260.994 410.082 256.6C411.656 259.671 414.37 261.882 416.878 264.159C418.403 265.543 419.985 266.826 421.631 268.061C422.429 268.66 423.237 269.248 424.037 269.845C424.352 270.081 425.066 270.444 425.27 270.776C425.747 271.554 425.457 271.202 425.383 272.142C425.267 273.615 424.775 274.774 425.609 276.185C426.392 277.51 428.099 278.076 429.295 278.981C432.141 281.135 435.134 283.425 438.292 285.107C439.009 285.489 439.686 285.82 440.354 286.287C441.468 287.066 441.264 287.349 442.387 286.602C444.143 285.433 445.66 283.492 447.245 282.082C450.565 279.128 453.923 276.212 457.323 273.351C463.803 267.897 470.474 262.715 476.874 257.164C482.955 251.89 489.475 247.349 495.753 242.334C497.475 240.959 499.176 239.555 500.876 238.151C502.389 236.902 504.845 235.525 505.965 233.927C507.59 231.605 501.231 228.432 499.312 227.959C496.004 227.145 491.726 227.611 488.412 228.278C484.934 228.979 481.392 231.321 478.144 232.78C474.483 234.424 470.754 235.846 467.066 237.398C465.422 238.09 463.678 238.643 462.151 239.576C460.531 240.565 459.085 241.693 457.362 242.523C455.377 243.479 453.314 244.37 451.226 245.077C450.28 245.397 449.261 245.719 448.267 245.848C446.859 246.031 447.05 245.383 445.881 245.021C444.887 244.713 444.651 245.526 443.758 245.752C442.916 245.966 442.287 245.75 441.559 245.297C439.935 244.289 438.489 242.899 436.864 241.849C435.357 240.875 433.695 239.965 432.282 238.862C431.652 238.37 431.187 237.697 430.566 237.198C429.571 236.397 429.177 236.715 428.015 236.164C427.066 235.713 426.204 234.874 425.301 234.318C424.74 233.972 423.38 233.536 423.018 232.978C422.068 231.511 423.69 230.492 425.142 230.924C425.36 229.658 426.477 226.65 425.994 225.463C425.568 224.412 424.447 224.609 423.505 224.053C419.963 221.961 417.349 218.162 414.035 215.705C410.912 213.389 408.156 210.624 405.061 208.265C402.41 206.244 399.513 204.271 397.099 202.092C394.246 199.515 390.592 197.511 387.489 195.211C384.284 192.836 381.305 190.193 378.134 187.79C375.083 185.479 372.087 183.065 368.952 180.864C366.134 178.887 363.181 177.081 360.422 175.076C358.91 173.978 357.258 173.014 355.532 172.293C353.817 171.576 352.316 170.735 350.641 169.963C347.312 168.428 342.977 167.368 339.357 166.928C335.377 166.445 331.381 166.011 327.363 166.008C325.223 166.006 323.144 166.414 321.016 166.543C319.062 166.661 316.948 167.155 315.007 167.09C314.129 167.061 313.365 166.689 312.514 166.809C311.803 166.909 311.185 167.338 310.423 167.413C308.725 167.58 307.018 167.413 305.302 167.633C301.358 168.137 297.409 168.855 293.457 169.255C289.247 169.682 285.073 169.762 280.885 170.48C276.792 171.182 272.673 171.909 268.604 172.72C259.956 174.443 251.218 176.127 242.707 178.686C240.717 179.284 238.716 179.853 236.804 180.674C235.875 181.071 234.984 181.553 234.016 181.851C232.63 182.277 232.357 182.438 231.643 181.275C230.413 179.274 229.736 176.626 228.844 174.448C227.962 172.293 226.891 170.121 226.38 167.87C227.867 167.635 229.743 168.092 231.277 168.145C233.153 168.209 235.009 168.169 236.883 168.157C240.66 168.135 243.614 167.019 247.188 165.848C250.201 164.86 254.211 164.294 256.509 162.032C257.741 160.82 258.151 160.607 260.003 160.824C261.872 161.043 263.717 161.421 265.604 161.483C272.713 161.719 279.79 162.96 286.932 163.205C288.864 163.271 293.696 164.187 293.379 160.91C293.314 160.23 292.793 159.64 292.691 158.94C292.582 158.189 292.77 157.428 292.888 156.694C293.167 154.958 293.459 153.224 293.738 151.488C300.25 153.578 306.844 155.271 313.481 156.927C316.233 157.613 320.654 159.192 323.497 158.326C326.247 157.49 324.654 153.616 323.798 151.762C329.26 153.009 335.086 155.048 340.656 155.516C342.35 155.658 344 156.033 344.394 153.985C344.708 152.352 343.529 150.356 342.928 148.922C347.203 148.54 351.629 148.577 350.824 143.098C350.087 138.071 345.911 137.07 341.465 136.152C335.977 135.017 330.372 134.639 324.849 133.721C320.043 132.923 314.799 132.032 309.891 132.435C307.293 132.648 304.679 132.697 302.081 132.937C300.856 133.051 299.677 133.241 298.491 133.575C297.397 133.883 295.867 134.838 294.745 134.855C293.052 134.881 291.011 132.592 289.191 132.063C286.935 131.408 284.505 131.289 282.175 131.128C279.534 130.947 276.889 130.846 274.25 130.632C273.648 130.583 271.374 130.732 270.899 130.38C270.207 129.866 270.668 127.232 270.716 126.15C270.761 125.149 270.568 123.275 271.262 122.882C271.913 122.514 273.812 123.019 274.454 123.122C277.112 123.548 279.637 123.499 282.285 123.391C283.508 123.341 284.683 123.667 285.895 123.506C287.194 123.334 288.502 122.897 289.797 122.654C292.6 122.127 295.155 121.471 297.57 119.901C299.691 118.522 302.201 117.589 303.386 115.175C304.254 113.407 304.607 109.995 302.055 109.492C303.793 106.985 304.992 104.169 305.914 101.272C306.081 100.746 306.192 99.9553 306.442 99.4972C307.324 97.8771 306.505 99.3141 307.764 98.6661C309.008 98.0264 309.905 97.52 310.877 96.4073C312.427 94.6328 313.079 92.4488 313.275 90.1367C313.541 86.9964 314.038 83.4556 313.579 80.3313C312.786 74.9194 308.83 70.8532 304.811 67.5801C302.629 65.803 299.757 65.1412 297.198 64.0629C294.728 63.0214 291.968 61.9297 289.366 61.6855C287.017 61.4649 284.726 60.698 282.375 60.3886C279.143 59.9628 275.907 60.1218 272.659 59.9926C271.164 59.9331 269.673 59.7222 268.185 59.5616C267.344 59.4708 265.923 59.5678 265.154 59.2348C263.894 58.689 264.574 59.8351 264.124 58.1657C263.269 54.9901 262.57 52.012 261.274 48.9262C260.066 46.0512 258.599 43.3025 256.661 40.8446C254.842 38.5391 252.485 36.8528 250.343 34.8833C248.755 33.4242 246.955 32.1063 245.145 30.9263C244.109 30.2517 242.956 29.887 241.945 29.2914C240.689 28.5526 239.581 27.9924 238.168 27.5399C235.136 26.5693 232.127 25.5386 228.907 25.5894C225.436 25.6438 221.955 24.8358 218.575 25.8603C212.3 27.7631 209.225 34.5647 209.33 40.8107C207.183 40.2751 205.307 39.244 203.033 39.1557C200.939 39.0747 198.451 39.2563 196.394 39.6451C192.402 40.3998 188.295 42.6191 185.915 45.9825C183.644 49.1904 183.305 53.4495 184.7 57.0889C185.368 58.8311 186.427 60.3809 187.556 61.8528C188.383 62.9322 190.229 64.127 190.316 65.5732C174.863 60.9022 159.348 57.6096 143.362 55.4785C135.259 54.3986 127.143 54.9393 119.031 54.3221C115.566 54.0585 111.801 54.4273 108.219 54.4412C106.707 54.4473 105.53 54.237 104.433 53.2581C103.323 52.268 102.436 51.0552 101.142 52.4845C100.812 52.8493 100.743 53.7317 100.298 54.0061C99.7598 54.3386 98.1935 54.1103 97.5492 54.1498C95.2965 54.2873 93.0982 54.6695 90.8866 55.1096C86.8286 55.9176 82.7968 56.7344 78.787 57.7599C71.1522 59.713 63.6185 61.6019 56.0941 63.9203C48.4162 66.2858 40.6572 69.2044 33.5781 73.0336C30.149 74.8881 26.7241 77.2034 23.5716 79.4976C22.1059 80.5647 20.7921 81.719 19.5177 83.0057C18.1546 84.3811 16.4878 85.3091 15.1381 86.6948C12.202 89.7088 9.27832 92.9059 6.61469 96.1713C5.22394 97.8761 3.94855 99.6742 2.71014 101.491C1.84106 102.766 -0.449097 105.1 0.0783081 106.747C0.359436 107.627 1.34137 108.242 2.24072 108.026C2.54083 107.954 2.7912 107.564 3.04718 107.528C3.91571 107.404 3.12567 107.099 4.1394 107.51C6.1535 108.327 6.79584 109.966 9.35474 109.593C13.7047 108.958 17.796 106.904 21.7519 105.113C22.8816 109.433 23.0416 113.911 24.0307 118.283C24.9952 122.547 26.6035 126.614 28.5453 130.526C30.2485 133.958 32.4356 137.616 35.4506 140.069C37.751 141.94 43.4286 144.265 45.1184 140.281C45.8362 138.588 44.7686 135.959 44.4664 134.217C44.0606 131.88 43.6133 129.536 43.3691 127.175C43.1711 125.257 43.071 123.327 42.8863 121.407C42.7268 119.755 42.2856 116.208 43.2146 114.749C43.7744 113.87 43.8231 114.733 44.1489 115.611C44.5439 116.675 44.8722 117.731 45.161 118.827C45.7756 121.157 46.3297 123.502 46.9109 125.84C47.9493 130.017 49.0928 134.103 51.2568 137.859C53.1785 141.194 55.8832 144.853 59.9935 145.399C61.9178 145.655 64.4265 144.775 65.8953 143.478C67.5436 142.024 67.0511 139.625 67.0378 137.648Z" fill="#FBFCFE"/>
<path fill-rule="evenodd" clip-rule="evenodd" d="M524.213 334.54C525.356 334.946 525.404 335.347 525.928 334.171C526.192 333.578 526.12 332.766 526.058 332.15C525.909 330.674 525.133 329.311 524.494 328.003C518.488 332.958 512.251 337.423 505.811 341.801C498.923 346.482 492.347 351.687 485.832 356.873C479.999 361.517 474.095 366.024 468.322 370.726C465.538 372.994 462.364 374.752 459.717 377.089C457.579 378.978 454.032 379.825 452.208 382.047C455.098 383.773 458.955 385.164 462.157 383.67C465.689 382.022 468.398 379.874 471.541 377.641C473.161 376.49 474.845 375.446 476.491 374.332C477.937 373.353 478.958 371.924 480.422 371.005C483.499 369.075 486.656 366.948 489.576 364.743C492.575 362.479 495.89 360.678 498.783 358.272C501.75 355.805 505.07 354.171 508.167 351.925C514.731 347.165 520.51 341.812 524.213 334.54Z" fill="#FBFCFE"/>
<path fill-rule="evenodd" clip-rule="evenodd" d="M452.441 288.616C458.565 284.672 464.71 281.21 470.043 276.18C475.309 271.215 479.91 265.615 485.77 261.307C488.695 259.157 491.713 257.14 494.585 254.92C497.311 252.813 500.445 251.008 502.909 248.605C506.193 245.401 512.342 239.447 508.146 234.67C502.938 240.864 495.792 245.747 489.277 250.449C482.408 255.407 476.103 261.192 469.587 266.594C463.31 271.797 457.055 277.049 450.93 282.391C449.321 283.794 447.77 285.268 446.143 286.648C445.944 286.817 444.257 287.886 444.257 288.17C444.257 288.852 445.564 289.278 446.03 289.468C446.765 289.767 448.753 290.512 449.587 290.26C450.024 290.128 450.032 289.772 450.347 289.561C450.528 289.219 450.739 288.897 450.979 288.595C451.467 288.602 451.954 288.609 452.441 288.616Z" fill="#FBFCFE"/>
<path fill-rule="evenodd" clip-rule="evenodd" d="M110.729 54.3314C112.777 54.3519 115.731 54.9327 117.61 54.1016C115.317 54.178 113.023 54.255 110.729 54.3314Z" fill="#FBFCFE"/>
<path fill-rule="evenodd" clip-rule="evenodd" d="M160.925 109.833C159.851 109.827 158.777 109.822 157.71 109.815C158.787 109.822 159.856 109.827 160.925 109.833Z" fill="#FBFCFE"/>
<path fill-rule="evenodd" clip-rule="evenodd" d="M67.0383 137.648C67.0465 138.797 67.0537 139.946 67.0635 141.09C67.0563 139.94 67.0476 138.794 67.0383 137.648Z" fill="#FBFCFE"/>
<path fill-rule="evenodd" clip-rule="evenodd" d="M278.505 349.377C279.646 349.46 280.786 349.542 281.926 349.624C280.785 349.542 279.645 349.459 278.505 349.377Z" fill="#FBFCFE"/>
<path fill-rule="evenodd" clip-rule="evenodd" d="M272.079 130.456C273.237 130.55 274.396 130.644 275.553 130.738C274.395 130.644 273.237 130.55 272.079 130.456Z" fill="#FBFCFE"/>
<path fill-rule="evenodd" clip-rule="evenodd" d="M152.224 109.454C151.404 109.452 150.585 109.451 149.771 109.449C150.593 109.451 151.408 109.453 152.224 109.454Z" fill="#FBFCFE"/>
<path fill-rule="evenodd" clip-rule="evenodd" d="M317.139 132.697C318.157 132.789 319.177 132.881 320.194 132.973C319.176 132.881 318.157 132.789 317.139 132.697Z" fill="#FBFCFE"/>
<path fill-rule="evenodd" clip-rule="evenodd" d="M272.151 59.9905C273.17 59.9967 274.189 60.0028 275.207 60.009C274.191 59.4703 273.172 59.6093 272.151 59.9905Z" fill="#FBFCFE"/>
<path fill-rule="evenodd" clip-rule="evenodd" d="M458.103 236.186C458.95 236.141 459.641 236.553 460.119 235.744C459.337 235.134 458.885 235.837 458.103 236.186Z" fill="#FBFCFE"/>
<path fill-rule="evenodd" clip-rule="evenodd" d="M300.923 168.153L303.568 167.855L300.923 168.153Z" fill="#FBFCFE"/>
<path fill-rule="evenodd" clip-rule="evenodd" d="M283.052 369.164C282.467 369.177 281.884 369.19 281.306 369.204C281.892 369.19 282.472 369.177 283.052 369.164Z" fill="#FBFCFE"/>
<path fill-rule="evenodd" clip-rule="evenodd" d="M147.318 55.9932C148.228 56.0747 149.139 56.1563 150.049 56.2379C149.138 56.1558 148.228 56.0747 147.318 55.9932Z" fill="#FBFCFE"/>
<path fill-rule="evenodd" clip-rule="evenodd" d="M435.891 332.226C436.765 332.229 437.639 332.233 438.514 332.236C437.639 332.233 436.765 332.229 435.891 332.226Z" fill="#FBFCFE"/>
<path fill-rule="evenodd" clip-rule="evenodd" d="M506.197 316.721C507.08 316.722 507.962 316.724 508.845 316.725C507.962 316.724 507.08 316.722 506.197 316.721Z" fill="#FBFCFE"/>
<path fill-rule="evenodd" clip-rule="evenodd" d="M283.123 131.185C284.019 131.273 284.915 131.361 285.812 131.449C284.915 131.361 284.019 131.273 283.123 131.185Z" fill="#FBFCFE"/>
<path fill-rule="evenodd" clip-rule="evenodd" d="M308.128 132.639C309.01 132.537 309.891 132.436 310.772 132.334C309.899 132.505 308.928 131.83 308.128 132.639Z" fill="#FBFCFE"/>
<path fill-rule="evenodd" clip-rule="evenodd" d="M228.265 168.036C227.716 167.974 226.945 167.781 226.379 167.871C226.453 168.194 228.054 168.035 228.265 168.036Z" fill="#FBFCFE"/>
<path fill-rule="evenodd" clip-rule="evenodd" d="M284.201 237.21C283.61 237.221 283.018 237.233 282.432 237.242C283.026 237.232 283.613 237.221 284.201 237.21Z" fill="#FBFCFE"/>
<path fill-rule="evenodd" clip-rule="evenodd" d="M337.629 166.762C338.493 166.845 339.357 166.929 340.221 167.012C339.356 166.928 338.493 166.845 337.629 166.762Z" fill="#FBFCFE"/>
<path fill-rule="evenodd" clip-rule="evenodd" d="M307.036 167.412C307.774 167.397 308.514 167.383 309.252 167.368C308.513 167.383 307.774 167.397 307.036 167.412Z" fill="#FBFCFE"/>
<path fill-rule="evenodd" clip-rule="evenodd" d="M444.153 161.819C444.9 161.912 445.647 162.004 446.393 162.095C445.645 162.003 444.899 161.911 444.153 161.819Z" fill="#FBFCFE"/>
<path fill-rule="evenodd" clip-rule="evenodd" d="M341.69 155.475C341.23 155.493 340.769 155.512 340.313 155.532C340.777 155.514 341.234 155.495 341.69 155.475Z" fill="#FBFCFE"/>
<path fill-rule="evenodd" clip-rule="evenodd" d="M306.498 233.058C306.03 233.027 305.562 232.997 305.101 232.966C305.57 232.996 306.034 233.027 306.498 233.058Z" fill="#FBFCFE"/>
<path fill-rule="evenodd" clip-rule="evenodd" d="M270.669 172.305C271.422 172.211 272.176 172.117 272.928 172.023C272.175 172.117 271.422 172.211 270.669 172.305Z" fill="#FBFCFE"/>
<path fill-rule="evenodd" clip-rule="evenodd" d="M452.442 288.616C451.954 288.609 451.465 288.603 450.982 288.595C451.472 288.601 451.958 288.609 452.442 288.616Z" fill="#FBFCFE"/>
<path fill-rule="evenodd" clip-rule="evenodd" d="M492.583 227.865C493.362 227.786 494.141 227.707 494.92 227.629C494.141 227.707 493.362 227.786 492.583 227.865Z" fill="#FBFCFE"/>
<path fill-rule="evenodd" clip-rule="evenodd" d="M509.2 316.827C509.966 316.915 510.731 317.004 511.497 317.092C510.731 317.004 509.966 316.915 509.2 316.827Z" fill="#FBFCFE"/>
<path fill-rule="evenodd" clip-rule="evenodd" d="M91.9385 109.709C91.9985 110.371 92.0586 111.033 92.1201 111.692C92.0601 111.029 91.9996 110.369 91.9385 109.709Z" fill="#FBFCFE"/>
<path fill-rule="evenodd" clip-rule="evenodd" d="M431.318 331.564C432.088 331.653 432.858 331.741 433.628 331.83C432.858 331.741 432.088 331.653 431.318 331.564Z" fill="#FBFCFE"/>
<path fill-rule="evenodd" clip-rule="evenodd" d="M438.872 332.327C439.651 332.871 440.43 332.902 441.21 332.329C440.431 332.328 439.651 332.328 438.872 332.327Z" fill="#FBFCFE"/>
<path fill-rule="evenodd" clip-rule="evenodd" d="M453.647 332.979C454.403 332.979 455.158 332.98 455.913 332.98C455.157 332.98 454.402 332.979 453.647 332.979Z" fill="#FBFCFE"/>
<path fill-rule="evenodd" clip-rule="evenodd" d="M365.275 75.4567C365.339 74.7862 365.404 74.1162 365.469 73.4482C365.404 74.1198 365.339 74.7883 365.275 75.4567Z" fill="#FBFCFE"/>
<path fill-rule="evenodd" clip-rule="evenodd" d="M282.75 60.4854C283.509 60.5792 284.269 60.6726 285.027 60.766C284.268 60.6726 283.509 60.5792 282.75 60.4854Z" fill="#FBFCFE"/>
<path fill-rule="evenodd" clip-rule="evenodd" d="M280.061 60.1299C280.833 60.2161 281.605 60.3028 282.376 60.3895C281.604 60.3028 280.833 60.2161 280.061 60.1299Z" fill="#FBFCFE"/>
<path fill-rule="evenodd" clip-rule="evenodd" d="M399.902 149.474C399.428 149.467 398.953 149.459 398.485 149.452C398.962 149.459 399.432 149.467 399.902 149.474Z" fill="#FBFCFE"/>
<path fill-rule="evenodd" clip-rule="evenodd" d="M331.158 142.048C328.638 141.633 326.119 141.494 323.6 142.047L331.158 142.048Z" fill="#FBFCFE"/>
<path fill-rule="evenodd" clip-rule="evenodd" d="M263.96 113.706C263.436 112.336 263.305 111.822 262.025 111.113C262.558 112.445 262.641 113.157 263.96 113.706Z" fill="#FBFCFE"/>
<path fill-rule="evenodd" clip-rule="evenodd" d="M202.518 249.266C202.467 250.69 202.416 252.114 202.366 253.537C202.417 252.112 202.467 250.689 202.518 249.266Z" fill="#FBFCFE"/>
<path fill-rule="evenodd" clip-rule="evenodd" d="M111.141 57.6201C112.281 57.6458 113.421 57.6719 114.556 57.6976C113.414 57.6719 112.278 57.6458 111.141 57.6201Z" fill="#FBFCFE"/>
<path fill-rule="evenodd" clip-rule="evenodd" d="M262.983 274.578C262.943 275.765 262.904 276.953 262.864 278.139C262.904 276.951 262.944 275.765 262.983 274.578Z" fill="#FBFCFE"/>
<path fill-rule="evenodd" clip-rule="evenodd" d="M402.659 236.541C401.508 236.549 400.356 236.557 399.205 236.566C400.357 236.557 401.508 236.549 402.659 236.541Z" fill="#FBFCFE"/>
<path fill-rule="evenodd" clip-rule="evenodd" d="M304.791 175.556C305.485 175.562 306.178 175.568 306.865 175.577C306.17 175.571 305.481 175.563 304.791 175.556Z" fill="#FBFCFE"/>
<path fill-rule="evenodd" clip-rule="evenodd" d="M307.052 137.818C307.622 137.799 308.193 137.779 308.758 137.762C308.185 137.782 307.618 137.8 307.052 137.818Z" fill="#FBFCFE"/>
<path fill-rule="evenodd" clip-rule="evenodd" d="M388.639 236.181C387.738 236.093 386.838 236.005 385.938 235.917C386.838 236.005 387.738 236.093 388.639 236.181Z" fill="#FBFCFE"/>
<path fill-rule="evenodd" clip-rule="evenodd" d="M408.255 236.586C407.373 236.573 406.491 236.559 405.61 236.545C406.491 236.559 407.373 236.573 408.255 236.586Z" fill="#FBFCFE"/>
<path fill-rule="evenodd" clip-rule="evenodd" d="M398.839 236.563C397.926 236.483 397.013 236.404 396.099 236.324C397.012 236.403 397.926 236.483 398.839 236.563Z" fill="#FBFCFE"/>
<path fill-rule="evenodd" clip-rule="evenodd" d="M395.509 238.011C395.963 238.009 396.417 238.005 396.864 238.003C396.409 238.006 395.959 238.009 395.509 238.011Z" fill="#FBFCFE"/>
<path fill-rule="evenodd" clip-rule="evenodd" d="M202.915 217.607C202.847 216.937 202.779 216.268 202.712 215.602C202.779 216.272 202.847 216.939 202.915 217.607Z" fill="#FBFCFE"/>
<path fill-rule="evenodd" clip-rule="evenodd" d="M339.261 149.955C338.688 150.004 338.115 150.053 337.542 150.102C338.181 150.135 338.822 150.167 339.461 150.2C339.457 150.068 339.391 149.987 339.261 149.955Z" fill="#FBFCFE"/>
<path fill-rule="evenodd" clip-rule="evenodd" d="M192.115 262.521C192.151 261.911 192.188 261.301 192.224 260.695C192.187 261.306 192.151 261.914 192.115 262.521Z" fill="#FBFCFE"/>
<path fill-rule="evenodd" clip-rule="evenodd" d="M328.981 147.63C329.44 147.639 329.9 147.648 330.354 147.657C329.892 147.647 329.436 147.639 328.981 147.63Z" fill="#FBFCFE"/>
<path fill-rule="evenodd" clip-rule="evenodd" d="M160.664 224.565C159.898 224.655 159.131 224.745 158.365 224.834C159.132 224.745 159.898 224.655 160.664 224.565Z" fill="#FBFCFE"/>
<path fill-rule="evenodd" clip-rule="evenodd" d="M319.851 174.065C320.322 174.073 320.793 174.079 321.259 174.087C320.786 174.081 320.318 174.073 319.851 174.065Z" fill="#FBFCFE"/>
<path fill-rule="evenodd" clip-rule="evenodd" d="M91.8999 219.857C92.3546 219.845 92.8088 219.833 93.2568 219.821C92.8011 219.834 92.3505 219.845 91.8999 219.857Z" fill="#FBFCFE"/>
<path fill-rule="evenodd" clip-rule="evenodd" d="M368.738 75.7905C368.786 74.767 368.834 73.744 368.882 72.7236C368.834 73.7481 368.786 74.769 368.738 75.7905Z" fill="#FBFCFE"/>
<path fill-rule="evenodd" clip-rule="evenodd" d="M282.613 365.2C281.912 365.303 281.212 365.405 280.512 365.508C281.213 365.405 281.913 365.303 282.613 365.2Z" fill="#FBFCFE"/>
<path fill-rule="evenodd" clip-rule="evenodd" d="M287.245 101.721C289.715 102.229 292.252 102.495 294.664 103.243C295.266 103.43 297.241 104.577 297.962 104.275C299.057 103.815 298.503 102.634 298.042 102.005C296.808 100.32 294.6 99.3758 292.575 99.3968C290.554 99.4184 287.78 99.3445 287.245 101.721Z" fill="#FBFCFE"/>
<path fill-rule="evenodd" clip-rule="evenodd" d="M294.107 106.241C291.387 108.145 289.31 109.083 289.079 104.804C286.131 105.205 287.453 109.953 289.683 110.311C292.111 110.7 293.73 108.275 294.107 106.241Z" fill="#FBFCFE"/>
</svg>
